<svg width="17" height="17" viewBox="0 0 17 17" fill="none" xmlns="http://www.w3.org/2000/svg">
<path d="M1.85404 1.52704L14.1899 13.8631C14.4239 14.0972 14.5554 14.4147 14.5554 14.7457C14.5554 15.0767 14.4239 15.3942 14.1899 15.6283V15.6283C13.9557 15.8623 13.6383 15.9937 13.3073 15.9937C12.9763 15.9937 12.6588 15.8623 12.4247 15.6283L9.41129 12.563C9.21409 12.3627 9.10346 12.093 9.10326 11.8119V11.6268C9.10329 11.4849 9.07512 11.3444 9.0204 11.2134C8.96569 11.0825 8.8855 10.9637 8.78451 10.864L8.39545 10.5048C8.26337 10.3829 8.10276 10.2962 7.9284 10.2527C7.75404 10.2092 7.57154 10.2102 7.39768 10.2557V10.2557C7.12352 10.3272 6.83541 10.3258 6.56195 10.2517C6.28848 10.1775 6.03917 10.0331 5.83875 9.83278L2.97837 6.97201C1.2815 5.2751 0.657053 2.71266 1.85404 1.52704Z" stroke="#1F5E5F" stroke-linejoin="round"/>
<path d="M13.3223 1L10.7358 3.58654C10.5367 3.78554 10.3789 4.02179 10.2711 4.28181C10.1634 4.54183 10.108 4.82053 10.108 5.10198V5.59953C10.108 5.66993 10.0941 5.73963 10.0672 5.80467C10.0402 5.86971 10.0007 5.92879 9.95095 5.97856L9.57227 6.35725" stroke="#1F5E5F" stroke-linecap="round" stroke-linejoin="round"/>
<path d="M10.6426 7.42872L11.0213 7.05003C11.071 7.00024 11.1301 6.96074 11.1951 6.93379C11.2602 6.90685 11.3299 6.89299 11.4003 6.893H11.8978C12.1793 6.893 12.458 6.83756 12.718 6.72984C12.978 6.62212 13.2142 6.46423 13.4132 6.26519L15.9997 3.67865" stroke="#1F5E5F" stroke-linecap="round" stroke-linejoin="round"/>
<path d="M14.661 2.33929L11.9824 5.01792" stroke="#1F5E5F" stroke-linecap="round" stroke-linejoin="round"/>
<path d="M6.62471 12.2502L3.28587 15.6079C3.03472 15.8589 2.69413 16 2.339 16C1.98387 16 1.64328 15.8589 1.39212 15.6079V15.6079C1.14105 15.3567 1 15.0161 1 14.661C1 14.3058 1.14105 13.9652 1.39212 13.7141L4.214 10.9109" stroke="#1F5E5F" stroke-linecap="round" stroke-linejoin="round"/>
</svg>
