<svg width="15" height="15" viewBox="0 0 15 15" fill="none" xmlns="http://www.w3.org/2000/svg">
<path d="M11.4684 6.87171C11.3666 5.65337 11.0273 4.47283 10.4733 3.40917C9.91922 2.34551 9.16321 1.4233 8.25587 0.704318L7.36428 0L6.52881 0.70875C5.65835 1.44702 4.94044 2.37732 4.42199 3.43888C3.90355 4.50043 3.59622 5.66937 3.52009 6.86932C3.18376 6.80017 2.84225 6.76537 2.5 6.76538H0V9C0 12.3084 2.46728 15 5.5 15H9.5C12.5327 15 15 12.3084 15 9V6.76538H12.5C12.1538 6.76535 11.8084 6.80096 11.4684 6.87171ZM7.14275 1.56989L7.38572 1.36364L7.66947 1.58778C8.48775 2.23624 9.16461 3.07388 9.65168 4.04084C10.1388 5.0078 10.424 6.0802 10.4871 7.18139C9.16478 7.75286 8.09505 8.85795 7.5 10.2672C6.90373 8.85534 5.83106 7.74895 4.5055 7.17856C4.54042 6.08974 4.79484 5.0227 5.25065 4.05331C5.70647 3.08393 6.35248 2.23602 7.14275 1.56989ZM7 13.9091H5.5C3.01875 13.9091 1 11.7068 1 9V7.85628H2.5C4.98125 7.85628 7 10.0586 7 12.7654V13.9091ZM14 9C14 11.7068 11.9812 13.9091 9.5 13.9091H8V12.7654C8 10.0586 10.0188 7.85628 12.5 7.85628H14V9Z" fill="#1F5E5F"/>
</svg>
