<svg width="40" height="43" viewBox="0 0 40 43" fill="none" xmlns="http://www.w3.org/2000/svg">
<g clip-path="url(#clip0)">
<path d="M30.5182 23.4303C30.2165 24.931 28.7089 29.9657 28.2063 31.4664H4.83594V30.1109C9.40948 29.6753 9.81154 29.4331 9.81154 25.3183V6.09963C9.81154 1.98479 9.30897 1.74275 5.28828 1.35548V0H18.7576V1.35548C14.7369 1.74275 14.1841 1.93639 14.1841 6.09963V25.8025C14.1841 28.7554 14.5861 29.4331 17.4509 29.4815C17.5011 29.4815 21.1197 29.5299 21.4213 29.5299C23.9846 29.5299 24.7383 29.2395 25.8942 28.0292C27.1507 26.7705 28.2063 24.8342 28.96 23.0431L30.5182 23.4303Z" fill="white"/>
<path d="M27.5859 43.0001V41.6446C30.8528 41.2574 31.2548 40.7732 30.5511 38.9336C29.8977 37.0457 28.8926 34.6252 27.8373 31.5754H16.9814C16.1772 33.7537 15.4234 35.6418 14.7197 37.6266C13.614 40.7732 14.3177 41.1606 18.4389 41.6446V43.0001H6.8291V41.6446C9.99541 41.2574 10.7995 40.9184 12.5586 36.5615L22.9621 11.1464L24.5704 10.856C27.7367 19.1341 31.2045 28.2834 34.3709 36.6583C35.9791 40.87 36.4315 41.2574 39.9999 41.6446V43.0001H27.5859ZM22.5601 17.1976C20.9517 21.3608 19.243 25.7661 17.7352 29.5905H27.1336L22.5601 17.1976Z" fill="white"/>
<path d="M0 39.3762C22.388 26.0756 27.8606 29.1632 30.8457 24.413C33.8307 19.6627 34.0705 19.3086 34.0705 19.3086" fill="url(#paint0_linear)"/>
<path d="M20.5105 29.5176H12.6787V31.4713H20.5105V29.5176Z" fill="white"/>
</g>
<defs>
<linearGradient id="paint0_linear" x1="13.4802" y1="19.3086" x2="4.06433" y2="44.8391" gradientUnits="userSpaceOnUse">
<stop stop-color="#263577" stop-opacity="0.95"/>
<stop offset="0.357707" stop-color="#161F46"/>
<stop offset="1" stop-color="white" stop-opacity="0"/>
</linearGradient>
<clipPath id="clip0">
<rect width="40" height="43" fill="white"/>
</clipPath>
</defs>
</svg>
