<svg width="66" height="39" viewBox="0 0 66 39" fill="none" xmlns="http://www.w3.org/2000/svg">
<path d="M65.5996 19.5C65.5996 30.2 56.8996 39 46.0996 39C35.3996 39 26.5996 30.2 26.5996 19.5C26.5996 8.8 35.2996 0 45.9996 0C56.8996 0 65.5996 8.8 65.5996 19.5Z" fill="#F9B50B"/>
<path d="M39.4996 19.6C39.4996 18.2 39.2996 16.8 39.0996 15.5H27.0996C27.1996 14.8 27.3996 14.2 27.5996 13.4H38.2996C38.0996 12.7 37.7996 12 37.4996 11.3H28.3996C28.6996 10.6 29.0996 10 29.4996 9.2H36.3996C35.9996 8.5 35.4996 7.8 34.8996 7.1H31.0996C31.6996 6.4 32.2996 5.8 33.0996 5.1C29.6996 1.9 25.0996 0 19.9996 0C9.39961 0.3 0.599609 8.8 0.599609 19.5C0.599609 30.2 9.29961 39 20.0996 39C25.1996 39 29.6996 37 33.1996 33.9C33.8996 33.3 34.4996 32.6 35.1996 31.8H31.1996C30.6996 31.2 30.1996 30.5 29.7996 29.8H36.5996C36.9996 29.2 37.3996 28.5 37.6996 27.7H28.5996C28.2996 27.1 27.9996 26.4 27.7996 25.6H38.4996C39.0996 23.8 39.4996 21.8 39.4996 19.6Z" fill="#C8191C"/>
<path d="M27 24.4999L27.3 22.6999C27.2 22.6999 27 22.7999 26.8 22.7999C26.1 22.7999 26 22.3999 26.1 22.1999L26.7 18.5999H27.8L28.1 16.5999H27.1L27.3 15.3999H25.2C25.2 15.3999 24 22.1999 24 22.9999C24 24.1999 24.7 24.7999 25.7 24.7999C26.3 24.7999 26.8 24.5999 27 24.4999Z" fill="white"/>
<path d="M27.6992 21.2001C27.6992 24.1001 29.6992 24.8001 31.2992 24.8001C32.7992 24.8001 33.4992 24.5001 33.4992 24.5001L33.8992 22.5001C33.8992 22.5001 32.7992 23.0001 31.6992 23.0001C29.3992 23.0001 29.7992 21.3001 29.7992 21.3001H33.9992C33.9992 21.3001 34.2992 20.0001 34.2992 19.4001C34.2992 18.1001 33.5992 16.4001 31.2992 16.4001C29.2992 16.3001 27.6992 18.6001 27.6992 21.2001ZM31.2992 18.2001C32.3992 18.2001 32.1992 19.5001 32.1992 19.6001H29.8992C29.9992 19.5001 30.1992 18.2001 31.2992 18.2001Z" fill="white"/>
<path d="M44.3992 24.4999L44.7992 22.1999C44.7992 22.1999 43.7992 22.6999 42.9992 22.6999C41.5992 22.6999 40.8992 21.5999 40.8992 20.2999C40.8992 17.7999 42.0992 16.4999 43.5992 16.4999C44.5992 16.4999 45.4992 17.0999 45.4992 17.0999L45.7992 14.8999C45.7992 14.8999 44.5992 14.3999 43.3992 14.3999C40.9992 14.3999 38.6992 16.4999 38.6992 20.3999C38.6992 22.9999 39.8992 24.6999 42.3992 24.6999C43.2992 24.7999 44.3992 24.4999 44.3992 24.4999Z" fill="white"/>
<path d="M15.6988 16.3C14.2988 16.3 13.1988 16.7001 13.1988 16.7001L12.8988 18.5C12.8988 18.5 13.7988 18.1 15.1988 18.1C15.8988 18.1 16.4988 18.2 16.4988 18.8C16.4988 19.2 16.3988 19.3 16.3988 19.3H15.4988C13.6988 19.3 11.7988 20 11.7988 22.4C11.7988 24.3 12.9988 24.7001 13.7988 24.7001C15.1988 24.7001 15.8988 23.8 15.9988 23.8L15.8988 24.6H17.5988L18.3988 18.9C18.3988 16.4 16.3988 16.3 15.6988 16.3ZM16.0988 20.9C16.0988 21.2 15.8988 22.9 14.6988 22.9C14.0988 22.9 13.8988 22.4001 13.8988 22.1C13.8988 21.6 14.1988 20.9 15.7988 20.9C15.9988 20.9 16.0988 20.9 16.0988 20.9Z" fill="white"/>
<path d="M20.4004 24.7C20.9004 24.7 23.5004 24.8 23.5004 22C23.5004 19.4 21.0004 19.9 21.0004 18.9C21.0004 18.4 21.4004 18.2 22.1004 18.2C22.4004 18.2 23.5004 18.2999 23.5004 18.2999L23.8004 16.4C23.8004 16.4 23.1004 16.2 21.8004 16.2C20.3004 16.2 18.7004 16.8 18.7004 18.9C18.7004 21.3 21.3004 21.1 21.3004 22C21.3004 22.6 20.6004 22.7 20.1004 22.7C19.2004 22.7 18.2004 22.4 18.2004 22.4L17.9004 24.2999C18.1004 24.4999 18.7004 24.7 20.4004 24.7Z" fill="white"/>
<path d="M61.5992 14.7L61.1992 17.5C61.1992 17.5 60.3992 16.5 59.1992 16.5C57.2992 16.5 55.6992 18.8 55.6992 21.5C55.6992 23.2 56.4992 24.9 58.2992 24.9C59.4992 24.9 60.2992 24.1 60.2992 24.1L60.1992 24.8H62.2992L63.7992 14.9L61.5992 14.7ZM60.5992 20.1C60.5992 21.2 60.0992 22.7 58.8992 22.7C58.1992 22.7 57.7992 22.1 57.7992 21C57.7992 19.3 58.4992 18.3 59.4992 18.3C60.1992 18.4 60.5992 18.9 60.5992 20.1Z" fill="white"/>
<path d="M4.40039 24.6L5.60039 17.2L5.80039 24.6H7.20039L9.90039 17.2L8.80039 24.6H11.0004L12.7004 14.7H9.30039L7.20039 20.8L7.10039 14.7H4.10039L2.40039 24.6H4.40039Z" fill="white"/>
<path d="M36.3996 24.6C36.9996 21.2 37.0996 18.4 38.5996 18.9C38.7996 17.6 39.0996 17 39.2996 16.5H38.8996C37.9996 16.5 37.1996 17.7 37.1996 17.7L37.3996 16.6H35.3996L34.0996 24.6H36.3996Z" fill="white"/>
<path d="M49.1988 16.3C47.7988 16.3 46.6988 16.7001 46.6988 16.7001L46.3988 18.5C46.3988 18.5 47.2988 18.1 48.6988 18.1C49.3988 18.1 49.9988 18.2 49.9988 18.8C49.9988 19.2 49.8988 19.3 49.8988 19.3H48.9988C47.1988 19.3 45.2988 20 45.2988 22.4C45.2988 24.3 46.4988 24.7001 47.2988 24.7001C48.6988 24.7001 49.3988 23.8 49.4988 23.8L49.3988 24.6H51.2988L52.0988 18.9C52.0988 16.4 49.8988 16.3 49.1988 16.3ZM49.6988 20.9C49.6988 21.2 49.4988 22.9 48.2988 22.9C47.6988 22.9 47.4988 22.4001 47.4988 22.1C47.4988 21.6 47.7988 20.9 49.3988 20.9C49.5988 20.9 49.5988 20.9 49.6988 20.9Z" fill="white"/>
<path d="M53.7004 24.6C54.3004 21.2 54.4004 18.4 55.9004 18.9C56.1004 17.6 56.4004 17 56.6004 16.5H56.2004C55.3004 16.5 54.5004 17.7 54.5004 17.7L54.7004 16.6H52.7004L51.4004 24.6H53.7004Z" fill="white"/>
</svg>
