<svg width="15" height="15" viewBox="0 0 15 15" fill="none" xmlns="http://www.w3.org/2000/svg">
<path d="M14.14 10.7969C13.8565 10.6646 13.5037 10.5 12.857 10.5C12.2104 10.5 11.8576 10.6646 11.5741 10.7969C11.3309 10.9103 11.1389 11 10.714 11C10.2892 11 10.0972 10.9104 9.85403 10.7969C9.57056 10.6646 9.21781 10.5 8.57116 10.5C7.9245 10.5 7.57175 10.6647 7.28831 10.7969C7.04516 10.9103 6.85313 11 6.42834 11C6.00356 11 5.81156 10.9104 5.56844 10.7969C5.285 10.6646 4.93225 10.5 4.28562 10.5C3.639 10.5 3.28622 10.6647 3.00278 10.7969C2.75962 10.9103 2.56759 11 2.14281 11C1.71803 11 1.526 10.9104 1.28284 10.7969C0.999406 10.6647 0.646625 10.5 0 10.5V11.5C0.424781 11.5 0.616813 11.5896 0.859969 11.7031C1.14341 11.8354 1.49619 12 2.14281 12C2.78944 12 3.14222 11.8353 3.42566 11.7031C3.66881 11.5897 3.86084 11.5 4.28562 11.5C4.71041 11.5 4.90241 11.5896 5.14553 11.7031C5.42897 11.8354 5.78172 12 6.42834 12C7.07497 12 7.42775 11.8353 7.71119 11.7031C7.95434 11.5897 8.14641 11.5 8.57116 11.5C8.99591 11.5 9.188 11.5896 9.43116 11.7031C9.71463 11.8354 10.0674 12 10.714 12C11.3607 12 11.7135 11.8354 11.997 11.7031C12.2401 11.5897 12.4322 11.5 12.857 11.5C13.2818 11.5 13.4739 11.5896 13.7171 11.7031C14.0006 11.8354 14.3533 12 15 12V11C14.5752 11 14.3831 10.9104 14.14 10.7969Z" fill="black"/>
<path d="M12.857 13.5C12.2104 13.5 11.8576 13.6646 11.5741 13.7969C11.3309 13.9103 11.1389 14 10.714 14C10.2892 14 10.0972 13.9104 9.85403 13.7969C9.57056 13.6646 9.21781 13.5 8.57116 13.5C7.9245 13.5 7.57175 13.6647 7.28831 13.7969C7.04516 13.9103 6.85313 14 6.42834 14C6.00356 14 5.81156 13.9104 5.56844 13.7969C5.285 13.6646 4.93225 13.5 4.28562 13.5C3.639 13.5 3.28622 13.6647 3.00278 13.7969C2.75962 13.9103 2.56759 14 2.14281 14C1.71803 14 1.526 13.9104 1.28284 13.7969C0.999406 13.6647 0.646625 13.5 0 13.5V14.5C0.424781 14.5 0.616813 14.5896 0.859969 14.7031C1.14341 14.8354 1.49619 15 2.14281 15C2.78944 15 3.14222 14.8353 3.42566 14.7031C3.66881 14.5897 3.86084 14.5 4.28562 14.5C4.71041 14.5 4.90241 14.5896 5.14553 14.7031C5.42897 14.8354 5.78172 15 6.42834 15C7.07497 15 7.42775 14.8353 7.71119 14.7031C7.95434 14.5897 8.14641 14.5 8.57116 14.5C8.99591 14.5 9.188 14.5896 9.43116 14.7031C9.71463 14.8354 10.0674 15 10.714 15C11.3607 15 11.7135 14.8354 11.997 14.7031C12.2401 14.5897 12.4322 14.5 12.857 14.5C13.2818 14.5 13.4739 14.5896 13.7171 14.7031C14.0006 14.8354 14.3533 15 15 15V14C14.5752 14 14.3831 13.9104 14.14 13.7969C13.8565 13.6646 13.5037 13.5 12.857 13.5Z" fill="black"/>
<path d="M7.25 8H11.75V9.75H12.75V3.12119C12.7496 2.81769 12.8417 2.52128 13.0139 2.27141L14.5755 0H13.362L12.1899 1.70487C11.9028 2.12133 11.7493 2.61536 11.75 3.12119V4.5H7.25V3.12119C7.24961 2.81769 7.34168 2.52128 7.51394 2.27141L9.07553 0H7.86197L6.68988 1.70487C6.40278 2.12133 6.24935 2.61536 6.25 3.12119V9.75H7.25V8ZM7.25 5.5H11.75V7H7.25V5.5Z" fill="black"/>
</svg>
