<svg width="15" height="15" viewBox="0 0 15 15" fill="none" xmlns="http://www.w3.org/2000/svg">
<path d="M7.49938 2.36979C7.61577 2.36979 7.72739 2.32355 7.80969 2.24125C7.89199 2.15895 7.93822 2.04733 7.93822 1.93094V0.43885C7.93822 0.322459 7.89199 0.210836 7.80969 0.128536C7.72739 0.0462358 7.61577 0 7.49938 0C7.383 0 7.27138 0.0462358 7.18908 0.128536C7.10678 0.210836 7.06055 0.322459 7.06055 0.43885V1.93094C7.06055 2.04733 7.10678 2.15895 7.18908 2.24125C7.27138 2.32355 7.383 2.36979 7.49938 2.36979Z" fill="black"/>
<path d="M7.49938 12.6302C7.383 12.6302 7.27138 12.6765 7.18908 12.7588C7.10678 12.8411 7.06055 12.9527 7.06055 13.0691V14.5612C7.06055 14.6776 7.10678 14.7892 7.18908 14.8715C7.27138 14.9538 7.383 15 7.49938 15C7.61577 15 7.72739 14.9538 7.80969 14.8715C7.89199 14.7892 7.93822 14.6776 7.93822 14.5612V13.0691C7.93822 12.9527 7.89199 12.8411 7.80969 12.7588C7.72739 12.6765 7.61577 12.6302 7.49938 12.6302Z" fill="black"/>
<path d="M3.25248 3.87507C3.33408 3.94925 3.44062 3.98998 3.55089 3.98917C3.60864 3.9895 3.6659 3.97843 3.71936 3.95659C3.77283 3.93476 3.82146 3.90258 3.86246 3.8619C3.9036 3.82111 3.93624 3.77257 3.95852 3.71909C3.9808 3.66561 3.99227 3.60825 3.99227 3.55032C3.99227 3.49239 3.9808 3.43503 3.95852 3.38155C3.93624 3.32807 3.9036 3.27953 3.86246 3.23874L2.81803 2.19866C2.73408 2.12677 2.62609 2.0892 2.51565 2.09347C2.4052 2.09773 2.30044 2.14352 2.22228 2.22168C2.14413 2.29983 2.09834 2.4046 2.09408 2.51505C2.08981 2.6255 2.12738 2.73349 2.19927 2.81744L3.25248 3.87507Z" fill="black"/>
<path d="M11.7463 11.1248C11.7054 11.0839 11.6569 11.0514 11.6034 11.0293C11.5499 11.0071 11.4926 10.9957 11.4348 10.9957C11.3769 10.9957 11.3196 11.0071 11.2662 11.0293C11.2127 11.0514 11.1641 11.0839 11.1232 11.1248C11.0823 11.1657 11.0498 11.2143 11.0277 11.2677C11.0055 11.3212 10.9941 11.3785 10.9941 11.4364C10.9941 11.4942 11.0055 11.5515 11.0277 11.605C11.0498 11.6585 11.0823 11.707 11.1232 11.748L12.1808 12.8012C12.2214 12.8427 12.2699 12.8756 12.3234 12.8982C12.3769 12.9208 12.4343 12.9326 12.4924 12.9328C12.6081 12.9312 12.7185 12.8839 12.7996 12.8012C12.8813 12.719 12.9272 12.6077 12.9272 12.4918C12.9272 12.3759 12.8813 12.2646 12.7996 12.1824L11.7463 11.1248Z" fill="black"/>
<path d="M2.36972 7.49988C2.36972 7.38349 2.32349 7.27187 2.24119 7.18957C2.15889 7.10727 2.04727 7.06104 1.93088 7.06104H0.438837C0.32245 7.06104 0.21083 7.10727 0.128532 7.18957C0.0462345 7.27187 0 7.38349 0 7.49988C0 7.61627 0.0462345 7.7279 0.128532 7.8102C0.21083 7.8925 0.32245 7.93873 0.438837 7.93873H1.93088C2.04727 7.93873 2.15889 7.8925 2.24119 7.8102C2.32349 7.7279 2.36972 7.61627 2.36972 7.49988Z" fill="black"/>
<path d="M14.5617 7.06104H13.0697C12.9533 7.06104 12.8417 7.10727 12.7594 7.18957C12.6771 7.27187 12.6309 7.38349 12.6309 7.49988C12.6309 7.61627 12.6771 7.7279 12.7594 7.8102C12.8417 7.8925 12.9533 7.93873 13.0697 7.93873H14.5617C14.6781 7.93873 14.7897 7.8925 14.872 7.8102C14.9543 7.7279 15.0006 7.61627 15.0006 7.49988C15.0006 7.38349 14.9543 7.27187 14.872 7.18957C14.7897 7.10727 14.6781 7.06104 14.5617 7.06104Z" fill="black"/>
<path d="M3.25138 11.1248L2.19817 12.1824C2.13655 12.2435 2.09443 12.3216 2.07715 12.4066C2.05987 12.4917 2.06819 12.5799 2.10107 12.6603C2.13395 12.7406 2.18991 12.8094 2.26187 12.8579C2.33383 12.9064 2.41857 12.9325 2.50536 12.9328C2.56342 12.9326 2.62085 12.9208 2.67434 12.8982C2.72782 12.8756 2.77629 12.8427 2.81693 12.8012L3.87453 11.748C3.95716 11.6653 4.00359 11.5532 4.00359 11.4364C4.00359 11.3195 3.95716 11.2074 3.87453 11.1248C3.79189 11.0422 3.67982 10.9957 3.56295 10.9957C3.44609 10.9957 3.33401 11.0422 3.25138 11.1248Z" fill="black"/>
<path d="M11.4492 3.98927C11.5069 3.9896 11.5642 3.97853 11.6177 3.95669C11.6711 3.93485 11.7198 3.90268 11.7608 3.862L12.814 2.80438C12.8957 2.72215 12.9416 2.61092 12.9416 2.49499C12.9416 2.37905 12.8957 2.26782 12.814 2.1856C12.7318 2.10386 12.6205 2.05798 12.5046 2.05798C12.3887 2.05798 12.2774 2.10386 12.1952 2.1856L11.1376 3.23884C11.0965 3.27963 11.0638 3.32817 11.0416 3.38165C11.0193 3.43513 11.0078 3.49249 11.0078 3.55042C11.0078 3.60835 11.0193 3.66571 11.0416 3.71919C11.0638 3.77267 11.0965 3.82121 11.1376 3.862C11.1786 3.90268 11.2273 3.93485 11.2807 3.95669C11.3342 3.97853 11.3914 3.9896 11.4492 3.98927Z" fill="black"/>
<path d="M7.55716 3.00159C6.6756 2.99027 5.81058 3.24135 5.07207 3.7229C4.33355 4.20446 3.7549 4.89474 3.40968 5.70599C3.06445 6.51725 2.96824 7.41284 3.13327 8.27892C3.2983 9.14499 3.71712 9.94244 4.33649 10.5699C4.95586 11.1973 5.74781 11.6264 6.61165 11.8026C7.4755 11.9788 8.37223 11.8942 9.18786 11.5595C10.0035 11.2247 10.7012 10.655 11.1922 9.92277C11.6832 9.19052 11.9455 8.32879 11.9455 7.44713C11.9514 6.27618 11.4927 5.15068 10.6701 4.31736C9.8475 3.48403 8.72805 3.01087 7.55716 3.00159ZM7.55716 11.0106C6.84902 11.0219 6.15353 10.8222 5.55926 10.4369C4.965 10.0516 4.49884 9.4982 4.22017 8.84708C3.94149 8.19597 3.8629 7.47664 3.99441 6.7807C4.12592 6.08477 4.46157 5.44372 4.95862 4.9392C5.45568 4.43468 6.09164 4.08951 6.78552 3.94765C7.4794 3.80579 8.19979 3.87367 8.85497 4.14263C9.51015 4.41159 10.0705 4.86946 10.4645 5.45794C10.8586 6.04643 11.0686 6.73888 11.0679 7.44713C11.0725 8.38455 10.7058 9.28568 10.048 9.95346C9.39006 10.6212 8.49451 11.0013 7.55716 11.0106Z" fill="black"/>
</svg>
