<svg width="15" height="15" viewBox="0 0 15 15" fill="none" xmlns="http://www.w3.org/2000/svg">
<path d="M14 10.9375V1.5625C14 1.47786 13.9753 1.40462 13.9258 1.34277C13.8763 1.28092 13.8177 1.25 13.75 1.25H1.25C1.18229 1.25 1.1237 1.28092 1.07422 1.34277C1.02474 1.40462 1 1.47786 1 1.5625V10.9375C1 11.0221 1.02474 11.0954 1.07422 11.1572C1.1237 11.2191 1.18229 11.25 1.25 11.25H13.75C13.8177 11.25 13.8763 11.2191 13.9258 11.1572C13.9753 11.0954 14 11.0221 14 10.9375ZM15 1.5625V10.9375C15 11.3672 14.8776 11.735 14.6328 12.041C14.388 12.347 14.0938 12.5 13.75 12.5H8V13.75H10.75C10.8229 13.75 10.8828 13.7793 10.9297 13.8379C10.9766 13.8965 11 13.9714 11 14.0625V14.6875C11 14.7786 10.9766 14.8535 10.9297 14.9121C10.8828 14.9707 10.8229 15 10.75 15H4.25C4.17708 15 4.11719 14.9707 4.07031 14.9121C4.02344 14.8535 4 14.7786 4 14.6875V14.0625C4 13.9714 4.02344 13.8965 4.07031 13.8379C4.11719 13.7793 4.17708 13.75 4.25 13.75H7V12.5H1.25C0.90625 12.5 0.611979 12.347 0.367188 12.041C0.122396 11.735 0 11.3672 0 10.9375V1.5625C0 1.13281 0.122396 0.764974 0.367188 0.458984C0.611979 0.152995 0.90625 0 1.25 0H13.75C14.0938 0 14.388 0.152995 14.6328 0.458984C14.8776 0.764974 15 1.13281 15 1.5625Z" fill="black"/>
</svg>
