<svg width="15" height="15" viewBox="0 0 15 15" fill="none" xmlns="http://www.w3.org/2000/svg">
<path d="M6.81818 0V1.30875C5.98074 1.43476 5.20753 1.79841 4.60744 2.34849C4.00736 2.89857 3.61064 3.60735 3.47318 4.375H2.72727V5.625H12.2727V4.375H11.5268C11.3894 3.60735 10.9926 2.89857 10.3926 2.34849C9.79248 1.79841 9.01926 1.43476 8.18182 1.30875V0H6.81818ZM7.5 2.5C8.80773 2.5 9.80659 3.28125 10.0998 4.375H4.90091C5.19409 3.28125 6.19227 2.5 7.5 2.5ZM6.13636 6.25C5.76136 6.25 5.45455 6.53125 5.45455 6.875C5.45455 7.21875 5.76136 7.5 6.13636 7.5C6.51136 7.5 6.81818 7.21875 6.81818 6.875C6.81818 6.53125 6.51136 6.25 6.13636 6.25ZM8.86364 6.25C8.48864 6.25 8.18182 6.53125 8.18182 6.875C8.18182 7.21875 8.48864 7.5 8.86364 7.5C9.23864 7.5 9.54545 7.21875 9.54545 6.875C9.54545 6.53125 9.23864 6.25 8.86364 6.25ZM4.77273 8.125C4.39773 8.125 4.09091 8.40625 4.09091 8.75C4.09091 9.09375 4.39773 9.375 4.77273 9.375C5.14773 9.375 5.45455 9.09375 5.45455 8.75C5.45455 8.40625 5.14773 8.125 4.77273 8.125ZM7.5 8.125C7.125 8.125 6.81818 8.40625 6.81818 8.75C6.81818 9.09375 7.125 9.375 7.5 9.375C7.875 9.375 8.18182 9.09375 8.18182 8.75C8.18182 8.40625 7.875 8.125 7.5 8.125ZM10.2273 8.125C9.85227 8.125 9.54545 8.40625 9.54545 8.75C9.54545 9.09375 9.85227 9.375 10.2273 9.375C10.6023 9.375 10.9091 9.09375 10.9091 8.75C10.9091 8.40625 10.6023 8.125 10.2273 8.125ZM3.40909 10C3.03409 10 2.72727 10.2812 2.72727 10.625C2.72727 10.9688 3.03409 11.25 3.40909 11.25C3.78409 11.25 4.09091 10.9688 4.09091 10.625C4.09091 10.2812 3.78409 10 3.40909 10ZM6.13636 10C5.76136 10 5.45455 10.2812 5.45455 10.625C5.45455 10.9688 5.76136 11.25 6.13636 11.25C6.51136 11.25 6.81818 10.9688 6.81818 10.625C6.81818 10.2812 6.51136 10 6.13636 10ZM8.86364 10C8.48864 10 8.18182 10.2812 8.18182 10.625C8.18182 10.9688 8.48864 11.25 8.86364 11.25C9.23864 11.25 9.54545 10.9688 9.54545 10.625C9.54545 10.2812 9.23864 10 8.86364 10ZM11.5909 10C11.2159 10 10.9091 10.2812 10.9091 10.625C10.9091 10.9688 11.2159 11.25 11.5909 11.25C11.9659 11.25 12.2727 10.9688 12.2727 10.625C12.2727 10.2812 11.9659 10 11.5909 10ZM2.04545 11.875C1.67045 11.875 1.36364 12.1562 1.36364 12.5C1.36364 12.8438 1.67045 13.125 2.04545 13.125C2.42045 13.125 2.72727 12.8438 2.72727 12.5C2.72727 12.1562 2.42045 11.875 2.04545 11.875ZM4.77273 11.875C4.39773 11.875 4.09091 12.1562 4.09091 12.5C4.09091 12.8438 4.39773 13.125 4.77273 13.125C5.14773 13.125 5.45455 12.8438 5.45455 12.5C5.45455 12.1562 5.14773 11.875 4.77273 11.875ZM7.5 11.875C7.125 11.875 6.81818 12.1562 6.81818 12.5C6.81818 12.8438 7.125 13.125 7.5 13.125C7.875 13.125 8.18182 12.8438 8.18182 12.5C8.18182 12.1562 7.875 11.875 7.5 11.875ZM10.2273 11.875C9.85227 11.875 9.54545 12.1562 9.54545 12.5C9.54545 12.8438 9.85227 13.125 10.2273 13.125C10.6023 13.125 10.9091 12.8438 10.9091 12.5C10.9091 12.1562 10.6023 11.875 10.2273 11.875ZM12.9545 11.875C12.5795 11.875 12.2727 12.1562 12.2727 12.5C12.2727 12.8438 12.5795 13.125 12.9545 13.125C13.3295 13.125 13.6364 12.8438 13.6364 12.5C13.6364 12.1562 13.3295 11.875 12.9545 11.875ZM0.681818 13.75C0.306818 13.75 0 14.0312 0 14.375C0 14.7188 0.306818 15 0.681818 15C1.05682 15 1.36364 14.7188 1.36364 14.375C1.36364 14.0312 1.05682 13.75 0.681818 13.75ZM3.40909 13.75C3.03409 13.75 2.72727 14.0312 2.72727 14.375C2.72727 14.7188 3.03409 15 3.40909 15C3.78409 15 4.09091 14.7188 4.09091 14.375C4.09091 14.0312 3.78409 13.75 3.40909 13.75ZM6.13636 13.75C5.76136 13.75 5.45455 14.0312 5.45455 14.375C5.45455 14.7188 5.76136 15 6.13636 15C6.51136 15 6.81818 14.7188 6.81818 14.375C6.81818 14.0312 6.51136 13.75 6.13636 13.75ZM8.86364 13.75C8.48864 13.75 8.18182 14.0312 8.18182 14.375C8.18182 14.7188 8.48864 15 8.86364 15C9.23864 15 9.54545 14.7188 9.54545 14.375C9.54545 14.0312 9.23864 13.75 8.86364 13.75ZM11.5909 13.75C11.2159 13.75 10.9091 14.0312 10.9091 14.375C10.9091 14.7188 11.2159 15 11.5909 15C11.9659 15 12.2727 14.7188 12.2727 14.375C12.2727 14.0312 11.9659 13.75 11.5909 13.75ZM14.3182 13.75C13.9432 13.75 13.6364 14.0312 13.6364 14.375C13.6364 14.7188 13.9432 15 14.3182 15C14.6932 15 15 14.7188 15 14.375C15 14.0312 14.6932 13.75 14.3182 13.75Z" fill="black"/>
</svg>
