<svg width="13" height="9" viewBox="0 0 13 9" fill="none" xmlns="http://www.w3.org/2000/svg">
<path d="M3.48438 8.5H6.51562C7.43942 8.49895 8.32507 8.13151 8.97829 7.47829C9.63151 6.82507 9.99895 5.93942 10 5.01562V4.5H10.75C11.3467 4.5 11.919 4.26295 12.341 3.84099C12.7629 3.41903 13 2.84674 13 2.25C13 1.65326 12.7629 1.08097 12.341 0.65901C11.919 0.237053 11.3467 8.89208e-09 10.75 0H0V5.01562C0.00105042 5.93942 0.36849 6.82507 1.02171 7.47829C1.67493 8.13151 2.56058 8.49895 3.48438 8.5ZM10 1H10.75C11.0815 1 11.3995 1.1317 11.6339 1.36612C11.8683 1.60054 12 1.91848 12 2.25C12 2.58152 11.8683 2.89946 11.6339 3.13388C11.3995 3.3683 11.0815 3.5 10.75 3.5H10V1ZM1 1H9V5.01562C8.99926 5.6743 8.73728 6.30578 8.27153 6.77153C7.80578 7.23728 7.1743 7.49926 6.51562 7.5H3.48438C2.8257 7.49926 2.19422 7.23728 1.72847 6.77153C1.26272 6.30578 1.00074 5.6743 1 5.01562V1Z" fill="black"/>
</svg>
