<svg width="14" height="12" viewBox="0 0 14 12" fill="none" xmlns="http://www.w3.org/2000/svg">
<path d="M10.2959 7.69531C9.4178 6.93125 8.27093 6.46875 7.01468 6.46875C5.75843 6.46875 4.61155 6.93125 3.73187 7.69687C3.70757 7.71878 3.6927 7.74923 3.69037 7.78186C3.68804 7.81448 3.69843 7.84674 3.71937 7.87187L4.28187 8.54219C4.32718 8.59531 4.40687 8.60156 4.45999 8.55625C5.14124 7.95625 6.03499 7.59375 7.01468 7.59375C7.99437 7.59375 8.88812 7.95625 9.56937 8.55469C9.62249 8.6 9.70218 8.59375 9.74749 8.54062L10.31 7.87031C10.3537 7.81875 10.3475 7.74062 10.2959 7.69531ZM12.1303 5.50625C10.7444 4.35156 8.96155 3.65625 7.01468 3.65625C5.0678 3.65625 3.28499 4.35156 1.89749 5.50625C1.87211 5.52766 1.85622 5.55824 1.85329 5.59131C1.85037 5.62439 1.86064 5.65728 1.88187 5.68281L2.44437 6.35312C2.48812 6.40625 2.5678 6.4125 2.61937 6.36875C3.81155 5.37812 5.34437 4.78125 7.01468 4.78125C8.68499 4.78125 10.2178 5.37812 11.4084 6.36875C11.4616 6.4125 11.5397 6.40625 11.5834 6.35312L12.1459 5.68281C12.1897 5.62969 12.1834 5.55 12.1303 5.50625ZM13.9537 3.33437C12.0569 1.77812 9.62874 0.84375 6.98343 0.84375C4.3553 0.84375 1.9428 1.76562 0.0506166 3.30312C0.0376167 3.31357 0.0268379 3.32651 0.0189151 3.34118C0.0109924 3.35586 0.00608577 3.37197 0.00448414 3.38857C0.00288251 3.40516 0.00461829 3.42192 0.00958928 3.43783C0.0145603 3.45375 0.0226659 3.46851 0.033429 3.48125L0.595929 4.15156C0.639679 4.20313 0.717804 4.21094 0.769367 4.16875C2.4678 2.79219 4.62874 1.96875 6.98343 1.96875C9.3553 1.96875 11.5303 2.80469 13.2334 4.19844C13.2866 4.24219 13.3647 4.23438 13.4084 4.18125L13.9709 3.51094C14.0162 3.45781 14.0084 3.37812 13.9537 3.33437ZM5.99905 10.1562C5.99905 10.4215 6.10441 10.6758 6.29195 10.8634C6.47948 11.0509 6.73384 11.1562 6.99905 11.1562C7.26427 11.1562 7.51862 11.0509 7.70616 10.8634C7.8937 10.6758 7.99905 10.4215 7.99905 10.1562C7.99905 9.89103 7.8937 9.63668 7.70616 9.44914C7.51862 9.26161 7.26427 9.15625 6.99905 9.15625C6.73384 9.15625 6.47948 9.26161 6.29195 9.44914C6.10441 9.63668 5.99905 9.89103 5.99905 10.1562Z" fill="black"/>
</svg>
