<svg width="15" height="15" viewBox="0 0 15 15" fill="none" xmlns="http://www.w3.org/2000/svg">
<path d="M2.8125 0C1.27031 0 0 0.846875 0 1.875V13.125C0 14.1531 1.27031 15 2.8125 15H12.1875C13.7297 15 15 14.1531 15 13.125V1.875C15 0.846875 13.7297 0 12.1875 0H2.8125ZM2.8125 1.25H12.1875C12.7078 1.25 13.125 1.52813 13.125 1.875V13.125C13.125 13.4719 12.7078 13.75 12.1875 13.75H2.8125C2.29219 13.75 1.875 13.4719 1.875 13.125V1.875C1.875 1.52813 2.29219 1.25 2.8125 1.25ZM7.5 11.875C7.25136 11.875 7.0129 11.9408 6.83709 12.0581C6.66127 12.1753 6.5625 12.3342 6.5625 12.5C6.5625 12.6658 6.66127 12.8247 6.83709 12.9419C7.0129 13.0592 7.25136 13.125 7.5 13.125C7.74864 13.125 7.9871 13.0592 8.16291 12.9419C8.33873 12.8247 8.4375 12.6658 8.4375 12.5C8.4375 12.3342 8.33873 12.1753 8.16291 12.0581C7.9871 11.9408 7.74864 11.875 7.5 11.875Z" fill="black"/>
</svg>
