<svg width="78" height="19" viewBox="0 0 78 19" fill="none" xmlns="http://www.w3.org/2000/svg">
<path d="M29.8012 8.15015C29.6012 9.65015 28.4012 9.65015 27.3012 9.65015H26.7012L27.2012 6.75014C27.2012 6.55014 27.4012 6.45015 27.6012 6.45015H27.9012C28.7012 6.45015 29.4012 6.45015 29.8012 6.85015C29.8012 7.25015 29.8012 7.65015 29.8012 8.15015ZM29.3012 4.15015H25.0012C24.7012 4.15015 24.5012 4.35015 24.4012 4.65015L22.7012 15.6501C22.7012 15.8501 22.8012 16.0501 23.1012 16.0501H25.1012C25.4012 16.0501 25.6012 15.8501 25.7012 15.5501L26.2012 12.5501C26.2012 12.2501 26.5012 12.0501 26.8012 12.0501H28.2012C31.0012 12.0501 32.6012 10.6501 33.1012 7.95015C33.3012 6.75015 33.1012 5.85015 32.6012 5.15015C31.8012 4.55015 30.7012 4.15015 29.3012 4.15015Z" fill="#263577"/>
<path d="M39.2007 12.15C39.0007 13.35 38.1007 14.15 36.9007 14.15C36.3007 14.15 35.8007 13.95 35.5007 13.55C35.2007 13.15 35.1007 12.65 35.2007 12.15C35.4007 10.95 36.3007 10.15 37.5007 10.15C38.1007 10.15 38.6007 10.35 38.9007 10.75C39.1007 11.05 39.3007 11.55 39.2007 12.15ZM42.0007 8.14995H40.0007C39.8007 8.14995 39.7007 8.24995 39.6007 8.44995L39.5007 9.04995L39.4007 8.84995C39.0007 8.24995 38.0007 7.94995 37.0007 7.94995C34.7007 7.94995 32.8007 9.64995 32.4007 12.05C32.2007 13.25 32.5007 14.35 33.2007 15.15C33.8007 15.85 34.7007 16.15 35.8007 16.15C37.6007 16.15 38.6007 14.95 38.6007 14.95L38.5007 15.55C38.5007 15.75 38.6007 15.95 38.9007 15.95H40.7007C41.0007 15.95 41.2007 15.75 41.3007 15.45L42.4007 8.44995C42.4007 8.34995 42.3007 8.14995 42.0007 8.14995Z" fill="#263577"/>
<path d="M52.8996 8.15015H50.7996C50.5996 8.15015 50.3996 8.25015 50.2996 8.45015L47.4997 12.6501L46.2996 8.65015C46.1996 8.35015 45.9996 8.25014 45.6996 8.25014H43.6996C43.4996 8.25014 43.2996 8.45014 43.3996 8.75014L45.6996 15.3501L43.5996 18.3501C43.3996 18.5501 43.5996 18.9501 43.8996 18.9501H45.9997C46.1997 18.9501 46.3997 18.8501 46.4997 18.6501L53.2996 8.75014C53.3996 8.45014 53.1996 8.15015 52.8996 8.15015Z" fill="#263577"/>
<path d="M60.1996 8.15015C59.9996 9.65015 58.7996 9.65015 57.6996 9.65015H57.0996L57.5996 6.75014C57.5996 6.55014 57.7996 6.45015 57.9996 6.45015H58.2996C59.0996 6.45015 59.7996 6.45015 60.1996 6.85015C60.2996 7.25015 60.2996 7.65015 60.1996 8.15015ZM59.6996 4.15015H55.3996C55.0996 4.15015 54.8996 4.35015 54.7996 4.65015L53.0996 15.6501C53.0996 15.8501 53.1996 16.0501 53.4996 16.0501H55.6996C55.8996 16.0501 56.0996 15.9501 56.0996 15.6501L56.5996 12.5501C56.5996 12.2501 56.8996 12.0501 57.1996 12.0501H58.5996C61.3996 12.0501 62.9996 10.6501 63.4996 7.95015C63.6996 6.75015 63.4996 5.85015 62.9996 5.15015C62.2996 4.55015 61.1996 4.15015 59.6996 4.15015Z" fill="#2199D6"/>
<path d="M69.7007 12.15C69.5007 13.35 68.6007 14.15 67.4007 14.15C66.8007 14.15 66.3007 13.95 66.0007 13.55C65.7007 13.15 65.6007 12.65 65.7007 12.15C65.9007 10.95 66.8007 10.15 68.0007 10.15C68.6007 10.15 69.1007 10.35 69.4007 10.75C69.6007 11.05 69.8007 11.55 69.7007 12.15ZM72.5007 8.14995H70.5007C70.3007 8.14995 70.2007 8.24995 70.1007 8.44995L70.0007 9.04995L69.9007 8.84995C69.5007 8.24995 68.5007 7.94995 67.5007 7.94995C65.2007 7.94995 63.3007 9.64995 62.9007 12.05C62.7007 13.25 63.0007 14.35 63.7007 15.15C64.3007 15.85 65.2007 16.15 66.3007 16.15C68.1007 16.15 69.1007 14.95 69.1007 14.95L69.0007 15.55C69.0007 15.75 69.1007 15.95 69.4007 15.95H71.2007C71.5007 15.95 71.7007 15.75 71.8007 15.45L72.9007 8.44995C72.9007 8.34995 72.7007 8.14995 72.5007 8.14995Z" fill="#2199D6"/>
<path d="M74.8996 4.45015L73.0996 15.6501C73.0996 15.8501 73.1996 16.0501 73.4996 16.0501H75.2996C75.5996 16.0501 75.7996 15.8501 75.8996 15.5501L77.5996 4.55015C77.5996 4.35015 77.4996 4.15015 77.1996 4.15015H75.1996C75.0996 4.15015 74.9996 4.35015 74.8996 4.45015Z" fill="#2199D6"/>
<path d="M4.90001 18.1501L5.2 16.0501H4.5H1L3.40001 0.750145C3.40001 0.750145 3.4 0.650146 3.5 0.650146H3.60001H9.5C11.4 0.650146 12.8 1.05015 13.5 1.85015C13.8 2.25015 14 2.65015 14.1 3.05015C14.2 3.55015 14.2 4.05014 14.1 4.75014V5.15015L14.4 5.35015C14.7 5.45015 14.9 5.65015 15.1 5.85015C15.4 6.15015 15.6 6.55015 15.6 7.05015C15.7 7.55015 15.7 8.15015 15.5 8.85015C15.3 9.65015 15.1 10.2501 14.8 10.8501C14.5 11.3501 14.1 11.7501 13.7 12.1501C13.3 12.4501 12.7 12.6501 12.2 12.8501C11.6 12.9501 11 13.0501 10.3 13.0501H9.8C9.5 13.0501 9.20001 13.1501 8.90001 13.3501C8.70001 13.5501 8.50001 13.8501 8.40001 14.1501V14.3501L7.8 18.0501V18.1501V18.2501C7.8 18.2501 7.8 18.2501 7.7 18.2501H4.90001V18.1501Z" fill="#263577"/>
<path d="M14.8008 4.75C14.8008 4.85 14.8008 4.95 14.7008 5.05C13.9008 9.05 11.3008 10.35 7.90079 10.35H6.20078C5.80078 10.35 5.40079 10.65 5.40079 11.05L4.50078 16.65L4.30078 18.25C4.30078 18.55 4.50078 18.75 4.70078 18.75H7.80078C8.20078 18.75 8.50078 18.45 8.50078 18.15V17.95L9.10078 14.35V14.15C9.20078 13.75 9.50078 13.55 9.80078 13.55H10.3008C13.3008 13.55 15.6008 12.35 16.2008 8.85C16.5008 7.35 16.3008 6.15 15.6008 5.35C15.4008 5.15 15.1008 4.95 14.8008 4.75Z" fill="#2199D6"/>
<path d="M14.0004 4.45015C13.9004 4.45015 13.8004 4.35015 13.6004 4.35015C13.5004 4.35015 13.3004 4.25014 13.2004 4.25014C12.7004 4.15014 12.2004 4.15015 11.7004 4.15015H7.10039C7.00039 4.15015 6.90038 4.15014 6.80038 4.25014C6.60038 4.35014 6.40039 4.55014 6.40039 4.75014L5.40039 10.9501V11.1501C5.50039 10.7501 5.80038 10.4501 6.20038 10.4501H7.90039C11.3004 10.4501 13.9004 9.05015 14.7004 5.15015C14.7004 5.05015 14.7004 4.95015 14.8004 4.85015C14.6004 4.75015 14.4004 4.65015 14.2004 4.55015C14.1004 4.45015 14.0004 4.45015 14.0004 4.45015Z" fill="#252C5E"/>
<path d="M6.40039 4.75005C6.40039 4.55005 6.60038 4.35005 6.80038 4.25005C6.90038 4.25005 7.00039 4.15005 7.10039 4.15005H11.7004C12.2004 4.15005 12.8004 4.15005 13.2004 4.25005C13.3004 4.25005 13.5004 4.25005 13.6004 4.35005C13.7004 4.35005 13.8004 4.45005 14.0004 4.45005C14.1004 4.45005 14.1004 4.45005 14.2004 4.55005C14.4004 4.65005 14.6004 4.75005 14.8004 4.85005C15.0004 3.35005 14.8004 2.35005 14.0004 1.45005C13.1004 0.450047 11.5004 0.0500488 9.50038 0.0500488H3.60039C3.20039 0.0500488 2.80038 0.350046 2.80038 0.750046L0.400391 16.15C0.400391 16.45 0.600391 16.75 0.900391 16.75H4.50038L5.40039 10.9501L6.40039 4.75005Z" fill="#263577"/>
</svg>
