<svg width="69" height="21" viewBox="0 0 69 21" fill="none" xmlns="http://www.w3.org/2000/svg">
<path d="M63.8004 0.300049H59.5004C58.2004 0.300049 57.2004 0.700049 56.6004 2.00005L48.4004 20.7H54.2004C54.2004 20.7 55.2004 18.2001 55.4004 17.6C56.0004 17.6 61.7004 17.6 62.5004 17.6C62.7004 18.3001 63.2004 20.6 63.2004 20.6H68.4004L63.8004 0.300049ZM57.0004 13.4C57.5004 12.2 59.2004 7.70005 59.2004 7.70005C59.2004 7.80005 59.7004 6.50005 59.9004 5.80005L60.3004 7.60005C60.3004 7.60005 61.4004 12.5 61.6004 13.5H57.0004V13.4Z" fill="#3362AB"/>
<path d="M48.8004 14C48.8004 18.2 45.0004 21 39.1004 21C36.6004 21 34.2004 20.5 32.9004 19.9L33.7004 15.3L34.4004 15.6C36.2004 16.4 37.4004 16.7 39.6004 16.7C41.2004 16.7 42.9004 16.1 42.9004 14.7C42.9004 13.8 42.2004 13.2 40.0004 12.2C37.9004 11.2 35.1004 9.6 35.1004 6.7C35.1004 2.7 39.0004 0 44.5004 0C46.6004 0 48.4004 0.4 49.5004 0.9L48.7004 5.3L48.3004 4.9C47.3004 4.5 46.0004 4.1 44.1004 4.1C42.0004 4.2 41.0004 5.1 41.0004 5.9C41.0004 6.8 42.2004 7.5 44.1004 8.4C47.3004 9.9 48.8004 11.6 48.8004 14Z" fill="#3362AB"/>
<path d="M0 0.500098L0.1 0.100098H8.7C9.9 0.100098 10.8 0.500098 11.1 1.8001L13 10.8001C11.1 6.0001 6.7 2.1001 0 0.500098Z" fill="#F9B50B"/>
<path d="M25.1 0.299951L16.4 20.6H10.5L5.5 3.59995C9.1 5.89995 12.1 9.49995 13.2 12L13.8 14.1L19.2 0.199951H25.1V0.299951Z" fill="#3362AB"/>
<path d="M27.4004 0.199951H32.9004L29.4004 20.6H23.9004L27.4004 0.199951Z" fill="#3362AB"/>
</svg>
